<svg width="972" height="182" viewBox="0 0 972 182" fill="none" xmlns="http://www.w3.org/2000/svg">
<path d="M240.707 27.8632V119.172H261.723V98.1563H351.763V79.3148H261.723V46.7046H351.582V27.8632H240.707ZM240.707 135.658V154.681H351.582V135.658H240.707Z" fill="#47D7AC"/>
<path d="M447.602 136.564C430.21 136.564 416.26 132.397 405.933 124.063C395.607 115.73 390.534 104.678 390.534 91.2719C390.534 78.0466 395.607 67.3577 406.114 58.8429C416.441 50.328 430.029 45.98 446.515 45.98C468.436 45.98 485.285 52.502 497.423 65.3649L515.54 59.024C499.416 38.1897 476.589 27.8632 446.515 27.8632C425.681 27.8632 408.288 33.2982 394.157 43.9871C377.852 56.1253 369.881 71.8869 369.881 91.2719C369.881 110.838 377.852 126.6 393.795 138.738C407.745 149.427 425.318 154.681 446.515 154.681C461.552 154.681 474.596 152.507 485.466 147.977C496.336 143.448 506.119 136.202 514.634 126.237L497.604 116.817C485.466 129.861 468.799 136.564 447.602 136.564Z" fill="#47D7AC"/>
<path d="M675.871 27.8632H533.654V46.8858H675.871V27.8632ZM615.18 64.0967H594.164V154.681H615.18V64.0967Z" fill="#47D7AC"/>
<path d="M809.393 46.3421C796.53 32.7545 779.681 25.689 759.028 25.689C738.737 25.689 721.708 32.7545 708.664 46.5233C697.431 58.4803 691.634 73.3361 691.634 91.0906C691.634 108.664 697.431 123.52 708.664 135.658C721.708 149.427 738.737 156.311 759.028 156.311C779.5 156.311 796.349 149.608 809.212 135.839C820.625 123.882 826.423 109.026 826.423 91.0905C826.423 73.1549 820.625 58.2992 809.393 46.3421ZM792.544 124.788C784.211 133.303 772.797 137.47 759.028 137.47C745.441 137.47 734.027 133.121 725.512 124.607C716.635 115.911 712.106 104.678 712.106 91.0906C712.106 78.4088 716.091 67.9011 723.882 59.3862C732.759 49.6031 744.354 44.7116 759.028 44.7116C772.616 44.7116 784.029 48.8784 792.544 57.3933C801.421 65.727 805.769 76.9594 805.769 91.0905C805.769 105.222 801.421 116.454 792.544 124.788Z" fill="#47D7AC"/>
<path d="M971.358 154.681L937.479 105.222C947.443 103.591 955.415 99.7868 961.031 93.6271C967.372 87.105 970.452 78.5902 970.452 67.7201C970.452 55.5819 966.647 45.7988 959.038 38.5521C951.429 31.4865 940.921 27.8632 927.696 27.8632H843.453V46.7046H864.469L843.453 63.3318V154.681H864.469V63.3318H843.453L864.469 46.7046H896.898L898.438 72.7143C898.779 78.4757 898.97 81.7059 899.311 87.4674L946.9 154.681H971.358ZM924.798 87.4674H899.311L896.898 46.7046H922.623C940.016 46.7046 948.893 53.7702 948.893 67.7201C948.893 80.7642 940.921 87.2862 924.798 87.4674Z" fill="#47D7AC"/>
<path fill-rule="evenodd" clip-rule="evenodd" d="M-0.000206811 91L72.7998 18.2L72.7998 3.14662e-05L163.8 91L72.7998 182L72.7998 163.8L-0.000206811 91ZM27.2998 91L72.7998 136.5L72.7998 154.7L136.5 91L72.7998 27.3001L72.7998 45.5L27.2998 91ZM109.2 91L72.7998 127.4L72.7998 109.2L54.5998 91L72.7998 72.8L72.7998 54.6L109.2 91Z" fill="#47D7AC"/>
</svg>
